<?xml version="1.0" encoding="UTF-8"?><svg id="blue_icon" xmlns="http://www.w3.org/2000/svg" viewBox="0 0 180 154.02"><defs><style>.cls-1{fill:#111827;}</style></defs><path class="cls-1" d="M130.09,55.83c0-4.04-3.28-7.32-7.32-7.32-3.28,0-6.06,2.16-6.99,5.13h0s0,0,0,0c-.16.5-.26,1.02-.3,1.56-1.61,7.27-5.46,11.14-9.58,18.42-2.95,5.64-4.84,9.56-6.05,12.24-7.49-14.23-13.58-16.91-22.35-25.19h0c0-3.17-2.57-5.73-5.73-5.73s-5.73,2.57-5.73,5.73c0,1.19.36,2.29.98,3.21.7,11.36-14.83,30.48-23.46,31.46,0,0,0,0,.01.01-5.4.85-9.54,5.51-9.54,11.14,0,6.24,5.06,11.29,11.29,11.29s11.29-5.06,11.29-11.29c0-1-.14-1.96-.38-2.88,0,0,0,0,0,0,.34-9.2,12.47-32.81,18-37.78.19-.09.37-.19.55-.3,7.53.19,16.36,12.45,18.65,18.43,5.75,14.61-.38,11.2-1.95,17.73,0,0,0,0,0,.01-.23.8-.36,1.64-.36,2.52,0,5,4.06,9.06,9.06,9.06s9.06-4.06,9.06-9.06c0-2.21-.79-4.23-2.1-5.8h0c-6-10,.03-19.05,2.1-23.89,4.29-8.33,10.55-10.01,15.18-11.59.57-.13,1.11-.33,1.62-.58,0,0,.01,0,.02,0h0c2.39-1.21,4.03-3.68,4.03-6.53Z"/><path class="cls-1" d="M159.85,89.37c-1.43-1.81-3.65-2.62-5.78-2.33-4.44-2.48-7.99-4.11-11-5.18.25-.68.35-1.43.22-2.2-.4-2.35-2.63-3.94-4.98-3.54-1.95.33-3.35,1.92-3.56,3.8-3.44-.37-6.64-.27-10.81-.64-1.36-1.72-3.85-2.02-5.57-.66-1.72,1.36-2.02,3.85-.66,5.57,1.36,1.72,3.85,2.02,5.57.66.6-.47,1.01-1.08,1.25-1.74,2.39-1.8,6.71-1.62,10.69-.71.19.35.4.69.67.97,1.95,8.36-7.19,24.53-13.48,26.35,0,0,0,0,0,0-3.91,1.31-6.4,5.3-5.69,9.49.79,4.64,5.18,7.76,9.82,6.97s7.76-5.18,6.97-9.82c-.13-.74-.35-1.44-.65-2.09,0,0,0,0,0,0-.87-6.66,4.75-24.73,8.27-29.88.53.25,1.01.49,1.42.73,9.38,5.48,4.59,6.25,6.53,10.48,0,0,0,0,0,0,.22.53.51,1.05.88,1.53,2.14,2.72,6.09,3.19,8.81,1.05,2.72-2.14,3.19-6.09,1.05-8.81Z"/><circle class="cls-1" cx="75.56" cy="30.41" r="7.1"/><circle class="cls-1" cx="80.64" cy="117.79" r="6.5"/><circle class="cls-1" cx="103.72" cy="35.15" r="12.35"/><path class="cls-1" d="M54.4,65.25c-.31-2.41-1.15-4.62-2.37-6.54h.01c-.71-1.32-.71-1.73-.67-2.46h-.02c.15-.64.2-1.31.11-2-.4-3.13-3.27-5.33-6.39-4.93-.58.07-1.11.26-1.61.49-1.51.99-2.15,1.13-4.45,1.33v.02c-.91-.04-1.83-.02-2.76.1-8.87,1.15-15.13,9.27-13.99,18.14,1.15,8.87,9.27,15.13,18.14,13.99s15.13-9.27,13.99-18.14ZM38.33,77.34c-5.63,0-10.19-4.56-10.19-10.19s4.56-10.19,10.19-10.19,10.19,4.56,10.19,10.19-4.56,10.19-10.19,10.19Z"/></svg>