<?xml version="1.0" encoding="UTF-8"?><svg id="Layer_1" xmlns="http://www.w3.org/2000/svg" viewBox="0 0 537.78 249.64"><defs><style>.cls-1{fill:none;}.cls-2{fill:#fff;}.cls-3{fill:#111827;}</style></defs><path class="cls-3" d="M60.73,162.13c-13.05,0-21.15,8.98-21.15,23.44s8.1,23.45,21.15,23.45,21.09-8.98,21.09-23.45-8.08-23.44-21.09-23.44ZM60.73,199.49c-6.28,0-9.88-5.07-9.88-13.92s3.6-13.92,9.88-13.92,9.82,5.07,9.82,13.92-3.58,13.92-9.82,13.92Z"/><path class="cls-3" d="M105.29,171.73c-3.49,0-6.58,1.13-9.03,3.23v-1.04c0-.85-.69-1.53-1.53-1.53h-7.67c-.85,0-1.53.69-1.53,1.53v43.82c0,.85.69,1.53,1.53,1.53h7.73c.41,0,.8-.16,1.09-.45.29-.29.45-.68.45-1.09l-.04-12.06c2.44,2.1,5.54,3.22,9.02,3.22,9.37,0,15.66-7.48,15.66-18.61s-6.15-18.56-15.66-18.56ZM110.21,190.34c0,3.71-.9,9.94-6.92,9.94s-6.98-6.23-6.98-9.94c0-6.35,2.54-10,6.98-10,6.02,0,6.92,6.26,6.92,10Z"/><path class="cls-3" d="M180.75,171.73c-3.08,0-5.91.87-8.25,2.51v-.32c0-.85-.69-1.53-1.53-1.53h-7.73c-.85,0-1.53.69-1.53,1.53v32.78c0,.85.69,1.53,1.53,1.53h7.73c.85,0,1.53-.69,1.53-1.53v-23.68c1.3-1.57,3.33-2.49,5.53-2.49,3.29,0,5.11,1.79,5.11,5.05v21.13c0,.85.69,1.53,1.53,1.53h7.67c.85,0,1.53-.69,1.53-1.53v-22.33c0-7.56-5.27-12.64-13.12-12.64Z"/><path class="cls-3" d="M205.21,164.45h9.24l9.11,15.63,9.05,15.57-.12-15.63-.06-15.57h7.06v42.25h-9.3l-9.11-15.51-8.99-15.45.12,15.45.06,15.51h-7.06v-42.25Z"/><path class="cls-3" d="M244.81,190.34c0-10.62,6.52-17.26,15.88-17.26,8.87,0,15.51,6.28,15.51,17.38v.6h-23.78c.24,7.06,3.38,10.87,8.27,10.87,3.98,0,6.76-2.53,7.85-7.48h7.3c-1.45,8.21-7,13.04-15.21,13.04-9.42,0-15.82-6.46-15.82-17.14ZM252.72,186.48h15.75c-1.03-5.13-3.86-7.85-7.85-7.85s-6.94,2.78-7.91,7.85Z"/><path class="cls-3" d="M281.27,196.26v-22.33h7.73v21.13c0,4.29,2.66,6.64,6.64,6.64,2.96,0,5.55-1.45,7.06-3.56v-24.21h7.73v32.78h-7.73v-3.86c-2.29,2.78-5.74,4.53-9.78,4.53-7.06,0-11.65-4.41-11.65-11.11Z"/><path class="cls-3" d="M317.49,173.92h7.73v5.19c2.11-3.68,5.49-5.73,9.84-5.73h.78v7.06c-.78-.12-1.57-.18-2.35-.18-3.44,0-6.64,1.39-8.27,4.04v22.39h-7.73v-32.78Z"/><path class="cls-3" d="M338.32,190.34c0-10.87,6.52-17.26,16.12-17.26s16.18,6.4,16.18,17.26-6.46,17.14-16.18,17.14-16.12-6.4-16.12-17.14ZM362.89,190.28c0-7.55-3.32-11.53-8.45-11.53s-8.39,3.98-8.39,11.53,3.32,11.53,8.39,11.53,8.45-3.92,8.45-11.53Z"/><path class="cls-3" d="M380.7,170.85h-14.43v-6.4h36.94v6.4h-14.49v35.86h-8.03v-35.86Z"/><path class="cls-3" d="M399.72,190.34c0-10.62,6.52-17.26,15.87-17.26,8.87,0,15.51,6.28,15.51,17.38v.6h-23.78c.24,7.06,3.38,10.87,8.27,10.87,3.98,0,6.76-2.53,7.85-7.48h7.3c-1.45,8.21-7,13.04-15.21,13.04-9.42,0-15.82-6.46-15.82-17.14ZM407.62,186.48h15.75c-1.03-5.13-3.86-7.85-7.85-7.85s-6.94,2.78-7.91,7.85Z"/><path class="cls-3" d="M434.67,190.34c0-10.87,6.46-17.26,15.93-17.26,8.33,0,14.31,5.07,15.39,13.94h-7.36c-.84-5.43-3.8-8.27-8.03-8.27-4.95,0-8.21,3.98-8.21,11.53s3.26,11.53,8.21,11.53c4.35,0,7.36-3.02,8.09-8.75h7.3c-.9,9.17-6.82,14.43-15.39,14.43-9.54,0-15.93-6.34-15.93-17.14Z"/><path class="cls-3" d="M471.07,164.45h7.73v13.22c2.29-2.72,5.68-4.41,9.72-4.41,7.06,0,11.65,4.41,11.65,11.11v22.33h-7.67v-21.13c0-4.29-2.66-6.58-6.64-6.58-2.96,0-5.55,1.39-7.06,3.5v24.21h-7.73v-42.25Z"/><path class="cls-1" d="M141.26,180.17c-3.49,0-5.14,2.51-5.92,4.78h11.78c-.85-2.47-2.53-4.78-5.86-4.78Z"/><path class="cls-3" d="M141.33,200.4c-4.8,0-6.24-4.35-6.62-7.8h22.14c.85,0,1.53-.69,1.53-1.53v-.6c0-11.32-6.85-18.92-17.05-18.92s-17.41,7.55-17.41,18.8,6.81,18.68,17.35,18.68c7.86,0,13.65-4.19,15.98-11.35h-10.96c-1.15,1.8-2.8,2.73-4.96,2.73ZM141.26,180.17c3.33,0,5.01,2.31,5.86,4.78h-11.78c.78-2.27,2.44-4.78,5.92-4.78Z"/><path class="cls-2" d="M60.73,163.66c-11.59,0-19.62,7.73-19.62,21.91s8.03,21.91,19.62,21.91,19.56-7.73,19.56-21.91-8.03-21.91-19.56-21.91ZM60.73,201.03c-6.82,0-11.41-5.31-11.41-15.45s4.59-15.45,11.41-15.45,11.35,5.31,11.35,15.45-4.53,15.45-11.35,15.45Z"/><path class="cls-2" d="M105.29,173.26c-4.53,0-8.21,2.05-10.56,5.86v-5.19h-7.67v43.82h7.73l-.06-16.24c2.35,3.8,6.04,5.85,10.56,5.85,8.39,0,14.13-6.64,14.13-17.08s-5.61-17.02-14.13-17.02ZM103.29,201.81c-5.19,0-8.51-3.98-8.51-11.47s3.32-11.53,8.51-11.53,8.45,3.98,8.45,11.53-3.26,11.47-8.45,11.47Z"/><path class="cls-2" d="M180.75,173.26c-4.1,0-7.48,1.69-9.78,4.47v-3.8h-7.73v32.78h7.73v-24.21c1.51-2.11,4.1-3.5,7.06-3.5,3.98,0,6.64,2.29,6.64,6.58v21.13h7.67v-22.33c0-6.7-4.59-11.11-11.59-11.11Z"/><path class="cls-3" d="M205.21,164.45h9.24l9.11,15.63,9.05,15.57-.12-15.63-.06-15.57h7.06v42.25h-9.3l-9.11-15.51-8.99-15.45.12,15.45.06,15.51h-7.06v-42.25Z"/><path class="cls-3" d="M244.81,190.34c0-10.62,6.52-17.26,15.88-17.26,8.87,0,15.51,6.28,15.51,17.38v.6h-23.78c.24,7.06,3.38,10.87,8.27,10.87,3.98,0,6.76-2.53,7.85-7.48h7.3c-1.45,8.21-7,13.04-15.21,13.04-9.42,0-15.82-6.46-15.82-17.14ZM252.72,186.48h15.75c-1.03-5.13-3.86-7.85-7.85-7.85s-6.94,2.78-7.91,7.85Z"/><path class="cls-3" d="M281.27,196.26v-22.33h7.73v21.13c0,4.29,2.66,6.64,6.64,6.64,2.96,0,5.55-1.45,7.06-3.56v-24.21h7.73v32.78h-7.73v-3.86c-2.29,2.78-5.74,4.53-9.78,4.53-7.06,0-11.65-4.41-11.65-11.11Z"/><path class="cls-3" d="M317.49,173.92h7.73v5.19c2.11-3.68,5.49-5.73,9.84-5.73h.78v7.06c-.78-.12-1.57-.18-2.35-.18-3.44,0-6.64,1.39-8.27,4.04v22.39h-7.73v-32.78Z"/><path class="cls-3" d="M338.32,190.34c0-10.87,6.52-17.26,16.12-17.26s16.18,6.4,16.18,17.26-6.46,17.14-16.18,17.14-16.12-6.4-16.12-17.14ZM362.89,190.28c0-7.55-3.32-11.53-8.45-11.53s-8.39,3.98-8.39,11.53,3.32,11.53,8.39,11.53,8.45-3.92,8.45-11.53Z"/><path class="cls-3" d="M380.7,170.85h-14.43v-6.4h36.94v6.4h-14.49v35.86h-8.03v-35.86Z"/><path class="cls-3" d="M399.72,190.34c0-10.62,6.52-17.26,15.87-17.26,8.87,0,15.51,6.28,15.51,17.38v.6h-23.78c.24,7.06,3.38,10.87,8.27,10.87,3.98,0,6.76-2.53,7.85-7.48h7.3c-1.45,8.21-7,13.04-15.21,13.04-9.42,0-15.82-6.46-15.82-17.14ZM407.62,186.48h15.75c-1.03-5.13-3.86-7.85-7.85-7.85s-6.94,2.78-7.91,7.85Z"/><path class="cls-3" d="M434.67,190.34c0-10.87,6.46-17.26,15.93-17.26,8.33,0,14.31,5.07,15.39,13.94h-7.36c-.84-5.43-3.8-8.27-8.03-8.27-4.95,0-8.21,3.98-8.21,11.53s3.26,11.53,8.21,11.53c4.35,0,7.36-3.02,8.09-8.75h7.3c-.9,9.17-6.82,14.43-15.39,14.43-9.54,0-15.93-6.34-15.93-17.14Z"/><path class="cls-3" d="M471.07,164.45h7.73v13.22c2.29-2.72,5.68-4.41,9.72-4.41,7.06,0,11.65,4.41,11.65,11.11v22.33h-7.67v-21.13c0-4.29-2.66-6.58-6.64-6.58-2.96,0-5.55,1.39-7.06,3.5v24.21h-7.73v-42.25Z"/><path class="cls-1" d="M141.26,178.63c-4.04,0-6.94,2.78-7.91,7.85h15.75c-1.03-5.13-3.86-7.85-7.85-7.85Z"/><path class="cls-1" d="M141.26,178.63c-4.04,0-6.94,2.78-7.91,7.85h15.75c-1.03-5.13-3.86-7.85-7.85-7.85Z"/><path class="cls-2" d="M141.33,201.93c-4.89,0-8.03-3.8-8.27-10.87h23.78v-.6c0-11.11-6.64-17.38-15.51-17.38-9.36,0-15.88,6.64-15.88,17.26s6.4,17.14,15.82,17.14c6.58,0,11.41-3.14,13.83-8.59h-7.78c-1.43,2.01-3.46,3.04-5.99,3.04ZM141.26,178.63c3.98,0,6.82,2.72,7.85,7.85h-15.75c.97-5.07,3.86-7.85,7.91-7.85Z"/><path class="cls-3" d="M308.98,71.88c0-4.04-3.28-7.32-7.32-7.32-3.28,0-6.06,2.16-6.99,5.13h0s0,0,0,0c-.16.5-.26,1.02-.3,1.56-1.61,7.27-5.46,11.14-9.58,18.42-2.95,5.64-4.84,9.56-6.05,12.24-7.49-14.23-13.58-16.91-22.35-25.19h0c0-3.17-2.57-5.73-5.73-5.73s-5.73,2.57-5.73,5.73c0,1.19.36,2.29.98,3.21.7,11.36-14.83,30.48-23.46,31.46,0,0,0,0,.01.01-5.4.85-9.54,5.51-9.54,11.14,0,6.24,5.06,11.29,11.29,11.29s11.29-5.06,11.29-11.29c0-1-.14-1.96-.38-2.88,0,0,0,0,0,0,.34-9.2,12.47-32.81,18-37.78.19-.09.37-.19.55-.3,7.53.19,16.36,12.45,18.65,18.43,5.75,14.61-.38,11.2-1.95,17.73,0,0,0,0,0,.01-.23.8-.36,1.64-.36,2.52,0,5,4.06,9.06,9.06,9.06s9.06-4.06,9.06-9.06c0-2.21-.79-4.23-2.1-5.8h0c-6-10,.03-19.05,2.1-23.89,4.29-8.33,10.55-10.01,15.18-11.59.57-.13,1.11-.33,1.62-.58,0,0,.01,0,.02,0h0c2.39-1.21,4.03-3.68,4.03-6.53Z"/><path class="cls-3" d="M338.74,105.42c-1.43-1.81-3.65-2.62-5.78-2.33-4.44-2.48-7.99-4.11-11-5.18.25-.68.35-1.43.22-2.2-.4-2.35-2.63-3.94-4.98-3.54-1.95.33-3.35,1.92-3.56,3.8-3.44-.37-6.64-.27-10.81-.64-1.36-1.72-3.85-2.02-5.57-.66-1.72,1.36-2.02,3.85-.66,5.57,1.36,1.72,3.85,2.02,5.57.66.6-.47,1.01-1.08,1.25-1.74,2.39-1.8,6.71-1.62,10.69-.71.19.35.4.69.67.97,1.95,8.36-7.19,24.53-13.48,26.35,0,0,0,0,0,0-3.91,1.31-6.4,5.3-5.69,9.49.79,4.64,5.18,7.76,9.82,6.97s7.76-5.18,6.97-9.82c-.13-.74-.35-1.44-.65-2.09,0,0,0,0,0,0-.87-6.66,4.75-24.73,8.27-29.88.53.25,1.01.49,1.42.73,9.38,5.48,4.59,6.25,6.53,10.48,0,0,0,0,0,0,.22.53.51,1.05.88,1.53,2.14,2.72,6.09,3.19,8.81,1.05,2.72-2.14,3.19-6.09,1.05-8.81Z"/><circle class="cls-3" cx="254.46" cy="46.47" r="7.1"/><circle class="cls-3" cx="259.53" cy="133.84" r="6.5"/><circle class="cls-3" cx="282.61" cy="51.21" r="12.35"/><path class="cls-3" d="M233.29,81.31c-.31-2.41-1.15-4.62-2.37-6.54h.01c-.71-1.32-.71-1.73-.67-2.46h-.02c.15-.64.2-1.31.11-2-.4-3.13-3.27-5.33-6.39-4.93-.58.07-1.11.26-1.61.49-1.51.99-2.15,1.13-4.45,1.33v.02c-.91-.04-1.83-.02-2.76.1-8.87,1.15-15.13,9.27-13.99,18.14,1.15,8.87,9.27,15.13,18.14,13.99s15.13-9.27,13.99-18.14ZM217.22,93.4c-5.63,0-10.19-4.56-10.19-10.19s4.56-10.19,10.19-10.19,10.19,4.56,10.19,10.19-4.56,10.19-10.19,10.19Z"/></svg>