<?xml version="1.0" encoding="UTF-8"?>
<svg id="blue_icon" xmlns="http://www.w3.org/2000/svg" version="1.1" viewBox="0 0 180 154">
  <!-- Generator: Adobe Illustrator 30.0.0, SVG Export Plug-In . SVG Version: 2.1.1 Build 123)  -->
  <defs>
    <style>
      .st0 {
        fill: #1b1464;
      }
    </style>
  </defs>
  <path class="st0" d="M130.1,55.8c0-4-3.3-7.3-7.3-7.3s-6.1,2.2-7,5.1h0s0,0,0,0c-.2.5-.3,1-.3,1.6-1.6,7.3-5.5,11.1-9.6,18.4-3,5.6-4.8,9.6-6.1,12.2-7.5-14.2-13.6-16.9-22.4-25.2h0c0-3.2-2.6-5.7-5.7-5.7s-5.7,2.6-5.7,5.7.4,2.3,1,3.2c.7,11.4-14.8,30.5-23.5,31.5,0,0,0,0,0,0-5.4.8-9.5,5.5-9.5,11.1s5.1,11.3,11.3,11.3,11.3-5.1,11.3-11.3-.1-2-.4-2.9c0,0,0,0,0,0,.3-9.2,12.5-32.8,18-37.8.2,0,.4-.2.5-.3,7.5.2,16.4,12.4,18.6,18.4,5.7,14.6-.4,11.2-1.9,17.7,0,0,0,0,0,0-.2.8-.4,1.6-.4,2.5,0,5,4.1,9.1,9.1,9.1s9.1-4.1,9.1-9.1-.8-4.2-2.1-5.8h0c-6-10,0-19,2.1-23.9,4.3-8.3,10.5-10,15.2-11.6.6-.1,1.1-.3,1.6-.6,0,0,0,0,0,0h0c2.4-1.2,4-3.7,4-6.5Z"/>
  <path class="st0" d="M159.8,89.4c-1.4-1.8-3.7-2.6-5.8-2.3-4.4-2.5-8-4.1-11-5.2.2-.7.3-1.4.2-2.2-.4-2.4-2.6-3.9-5-3.5-2,.3-3.4,1.9-3.6,3.8-3.4-.4-6.6-.3-10.8-.6-1.4-1.7-3.9-2-5.6-.7-1.7,1.4-2,3.9-.7,5.6,1.4,1.7,3.9,2,5.6.7.6-.5,1-1.1,1.3-1.7,2.4-1.8,6.7-1.6,10.7-.7.2.4.4.7.7,1,1.9,8.4-7.2,24.5-13.5,26.3,0,0,0,0,0,0-3.9,1.3-6.4,5.3-5.7,9.5.8,4.6,5.2,7.8,9.8,7s7.8-5.2,7-9.8c-.1-.7-.4-1.4-.6-2.1,0,0,0,0,0,0-.9-6.7,4.8-24.7,8.3-29.9.5.2,1,.5,1.4.7,9.4,5.5,4.6,6.3,6.5,10.5,0,0,0,0,0,0,.2.5.5,1,.9,1.5,2.1,2.7,6.1,3.2,8.8,1,2.7-2.1,3.2-6.1,1-8.8Z"/>
  <circle class="st0" cx="75.6" cy="30.4" r="7.1"/>
  <circle class="st0" cx="80.6" cy="117.8" r="6.5"/>
  <circle class="st0" cx="103.7" cy="35.2" r="12.4"/>
  <path class="st0" d="M54.4,65.2c-.3-2.4-1.2-4.6-2.4-6.5h0c-.7-1.3-.7-1.7-.7-2.5h0c.1-.6.2-1.3.1-2-.4-3.1-3.3-5.3-6.4-4.9-.6,0-1.1.3-1.6.5-1.5,1-2.2,1.1-4.5,1.3h0c-.9,0-1.8,0-2.7.1-8.9,1.1-15.1,9.3-14,18.1,1.1,8.9,9.3,15.1,18.1,14s15.1-9.3,14-18.1ZM38.3,77.3c-5.6,0-10.2-4.6-10.2-10.2s4.6-10.2,10.2-10.2,10.2,4.6,10.2,10.2-4.6,10.2-10.2,10.2Z"/>
</svg>