<?xml version="1.0" encoding="UTF-8"?>
<svg id="Layer_1" xmlns="http://www.w3.org/2000/svg" version="1.1" viewBox="0 0 537.8 249.6">
  <!-- Generator: Adobe Illustrator 30.0.0, SVG Export Plug-In . SVG Version: 2.1.1 Build 123)  -->
  <defs>
    <style>
      .st0 {
        fill: none;
      }

      .st1 {
        fill: #1b1464;
      }

      .st2 {
        fill: #fff;
      }
    </style>
  </defs>
  <g>
    <g>
      <path class="st1" d="M60.7,162.1c-13,0-21.2,9-21.2,23.4s8.1,23.4,21.2,23.4,21.1-9,21.1-23.4-8.1-23.4-21.1-23.4ZM60.7,199.5c-6.3,0-9.9-5.1-9.9-13.9s3.6-13.9,9.9-13.9,9.8,5.1,9.8,13.9-3.6,13.9-9.8,13.9Z"/>
      <path class="st1" d="M105.3,171.7c-3.5,0-6.6,1.1-9,3.2v-1c0-.8-.7-1.5-1.5-1.5h-7.7c-.8,0-1.5.7-1.5,1.5v43.8c0,.8.7,1.5,1.5,1.5h7.7c.4,0,.8-.2,1.1-.5.3-.3.4-.7.4-1.1v-12.1c2.4,2.1,5.5,3.2,9,3.2,9.4,0,15.7-7.5,15.7-18.6s-6.1-18.6-15.7-18.6ZM110.2,190.3c0,3.7-.9,9.9-6.9,9.9s-7-6.2-7-9.9c0-6.4,2.5-10,7-10s6.9,6.3,6.9,10Z"/>
      <path class="st1" d="M180.7,171.7c-3.1,0-5.9.9-8.2,2.5v-.3c0-.8-.7-1.5-1.5-1.5h-7.7c-.8,0-1.5.7-1.5,1.5v32.8c0,.8.7,1.5,1.5,1.5h7.7c.8,0,1.5-.7,1.5-1.5v-23.7c1.3-1.6,3.3-2.5,5.5-2.5,3.3,0,5.1,1.8,5.1,5v21.1c0,.8.7,1.5,1.5,1.5h7.7c.8,0,1.5-.7,1.5-1.5v-22.3c0-7.6-5.3-12.6-13.1-12.6Z"/>
    </g>
    <path class="st1" d="M205.2,164.4h9.2l9.1,15.6,9.1,15.6v-15.6c-.1,0-.2-15.6-.2-15.6h7.1v42.3h-9.3l-9.1-15.5-9-15.5v15.5c.1,0,.2,15.5.2,15.5h-7.1v-42.3Z"/>
    <path class="st1" d="M244.8,190.3c0-10.6,6.5-17.3,15.9-17.3s15.5,6.3,15.5,17.4v.6h-23.8c.2,7.1,3.4,10.9,8.3,10.9s6.8-2.5,7.8-7.5h7.3c-1.4,8.2-7,13-15.2,13s-15.8-6.5-15.8-17.1ZM252.7,186.5h15.8c-1-5.1-3.9-7.8-7.8-7.8s-6.9,2.8-7.9,7.8Z"/>
    <path class="st1" d="M281.3,196.3v-22.3h7.7v21.1c0,4.3,2.7,6.6,6.6,6.6s5.6-1.4,7.1-3.6v-24.2h7.7v32.8h-7.7v-3.9c-2.3,2.8-5.7,4.5-9.8,4.5-7.1,0-11.6-4.4-11.6-11.1Z"/>
    <path class="st1" d="M317.5,173.9h7.7v5.2c2.1-3.7,5.5-5.7,9.8-5.7h.8v7.1c-.8-.1-1.6-.2-2.4-.2-3.4,0-6.6,1.4-8.3,4v22.4h-7.7v-32.8Z"/>
    <path class="st1" d="M338.3,190.3c0-10.9,6.5-17.3,16.1-17.3s16.2,6.4,16.2,17.3-6.5,17.1-16.2,17.1-16.1-6.4-16.1-17.1ZM362.9,190.3c0-7.5-3.3-11.5-8.5-11.5s-8.4,4-8.4,11.5,3.3,11.5,8.4,11.5,8.5-3.9,8.5-11.5Z"/>
    <path class="st1" d="M380.7,170.8h-14.4v-6.4h36.9v6.4h-14.5v35.9h-8v-35.9Z"/>
    <path class="st1" d="M399.7,190.3c0-10.6,6.5-17.3,15.9-17.3s15.5,6.3,15.5,17.4v.6h-23.8c.2,7.1,3.4,10.9,8.3,10.9s6.8-2.5,7.8-7.5h7.3c-1.4,8.2-7,13-15.2,13s-15.8-6.5-15.8-17.1ZM407.6,186.5h15.8c-1-5.1-3.9-7.8-7.8-7.8s-6.9,2.8-7.9,7.8Z"/>
    <path class="st1" d="M434.7,190.3c0-10.9,6.5-17.3,15.9-17.3s14.3,5.1,15.4,13.9h-7.4c-.8-5.4-3.8-8.3-8-8.3s-8.2,4-8.2,11.5,3.3,11.5,8.2,11.5,7.4-3,8.1-8.8h7.3c-.9,9.2-6.8,14.4-15.4,14.4s-15.9-6.3-15.9-17.1Z"/>
    <path class="st1" d="M471.1,164.4h7.7v13.2c2.3-2.7,5.7-4.4,9.7-4.4,7.1,0,11.6,4.4,11.6,11.1v22.3h-7.7v-21.1c0-4.3-2.7-6.6-6.6-6.6s-5.6,1.4-7.1,3.5v24.2h-7.7v-42.3Z"/>
    <g>
      <path class="st0" d="M141.3,180.2c-3.5,0-5.1,2.5-5.9,4.8h11.8c-.8-2.5-2.5-4.8-5.9-4.8Z"/>
      <path class="st1" d="M141.3,200.4c-4.8,0-6.2-4.4-6.6-7.8h22.1c.8,0,1.5-.7,1.5-1.5v-.6c0-11.3-6.9-18.9-17-18.9s-17.4,7.6-17.4,18.8,6.8,18.7,17.3,18.7,13.7-4.2,16-11.3h-11c-1.1,1.8-2.8,2.7-5,2.7ZM141.3,180.2c3.3,0,5,2.3,5.9,4.8h-11.8c.8-2.3,2.4-4.8,5.9-4.8Z"/>
    </g>
  </g>
  <g>
    <g>
      <path class="st2" d="M60.7,163.7c-11.6,0-19.6,7.7-19.6,21.9s8,21.9,19.6,21.9,19.6-7.7,19.6-21.9-8-21.9-19.6-21.9ZM60.7,201c-6.8,0-11.4-5.3-11.4-15.5s4.6-15.5,11.4-15.5,11.3,5.3,11.3,15.5-4.5,15.5-11.3,15.5Z"/>
      <path class="st2" d="M105.3,173.3c-4.5,0-8.2,2.1-10.6,5.9v-5.2h-7.7v43.8h7.7v-16.2c2.3,3.8,6,5.9,10.5,5.9,8.4,0,14.1-6.6,14.1-17.1s-5.6-17-14.1-17ZM103.3,201.8c-5.2,0-8.5-4-8.5-11.5s3.3-11.5,8.5-11.5,8.5,4,8.5,11.5-3.3,11.5-8.5,11.5Z"/>
      <path class="st2" d="M180.7,173.3c-4.1,0-7.5,1.7-9.8,4.5v-3.8h-7.7v32.8h7.7v-24.2c1.5-2.1,4.1-3.5,7.1-3.5s6.6,2.3,6.6,6.6v21.1h7.7v-22.3c0-6.7-4.6-11.1-11.6-11.1Z"/>
    </g>
    <path class="st1" d="M205.2,164.4h9.2l9.1,15.6,9.1,15.6v-15.6c-.1,0-.2-15.6-.2-15.6h7.1v42.3h-9.3l-9.1-15.5-9-15.5v15.5c.1,0,.2,15.5.2,15.5h-7.1v-42.3Z"/>
    <path class="st1" d="M244.8,190.3c0-10.6,6.5-17.3,15.9-17.3s15.5,6.3,15.5,17.4v.6h-23.8c.2,7.1,3.4,10.9,8.3,10.9s6.8-2.5,7.8-7.5h7.3c-1.4,8.2-7,13-15.2,13s-15.8-6.5-15.8-17.1ZM252.7,186.5h15.8c-1-5.1-3.9-7.8-7.8-7.8s-6.9,2.8-7.9,7.8Z"/>
    <path class="st1" d="M281.3,196.3v-22.3h7.7v21.1c0,4.3,2.7,6.6,6.6,6.6s5.6-1.4,7.1-3.6v-24.2h7.7v32.8h-7.7v-3.9c-2.3,2.8-5.7,4.5-9.8,4.5-7.1,0-11.6-4.4-11.6-11.1Z"/>
    <path class="st1" d="M317.5,173.9h7.7v5.2c2.1-3.7,5.5-5.7,9.8-5.7h.8v7.1c-.8-.1-1.6-.2-2.4-.2-3.4,0-6.6,1.4-8.3,4v22.4h-7.7v-32.8Z"/>
    <path class="st1" d="M338.3,190.3c0-10.9,6.5-17.3,16.1-17.3s16.2,6.4,16.2,17.3-6.5,17.1-16.2,17.1-16.1-6.4-16.1-17.1ZM362.9,190.3c0-7.5-3.3-11.5-8.5-11.5s-8.4,4-8.4,11.5,3.3,11.5,8.4,11.5,8.5-3.9,8.5-11.5Z"/>
    <path class="st1" d="M380.7,170.8h-14.4v-6.4h36.9v6.4h-14.5v35.9h-8v-35.9Z"/>
    <path class="st1" d="M399.7,190.3c0-10.6,6.5-17.3,15.9-17.3s15.5,6.3,15.5,17.4v.6h-23.8c.2,7.1,3.4,10.9,8.3,10.9s6.8-2.5,7.8-7.5h7.3c-1.4,8.2-7,13-15.2,13s-15.8-6.5-15.8-17.1ZM407.6,186.5h15.8c-1-5.1-3.9-7.8-7.8-7.8s-6.9,2.8-7.9,7.8Z"/>
    <path class="st1" d="M434.7,190.3c0-10.9,6.5-17.3,15.9-17.3s14.3,5.1,15.4,13.9h-7.4c-.8-5.4-3.8-8.3-8-8.3s-8.2,4-8.2,11.5,3.3,11.5,8.2,11.5,7.4-3,8.1-8.8h7.3c-.9,9.2-6.8,14.4-15.4,14.4s-15.9-6.3-15.9-17.1Z"/>
    <path class="st1" d="M471.1,164.4h7.7v13.2c2.3-2.7,5.7-4.4,9.7-4.4,7.1,0,11.6,4.4,11.6,11.1v22.3h-7.7v-21.1c0-4.3-2.7-6.6-6.6-6.6s-5.6,1.4-7.1,3.5v24.2h-7.7v-42.3Z"/>
  </g>
  <path class="st0" d="M141.3,178.6c-4,0-6.9,2.8-7.9,7.8h15.8c-1-5.1-3.9-7.8-7.8-7.8Z"/>
  <g>
    <path class="st0" d="M141.3,178.6c-4,0-6.9,2.8-7.9,7.8h15.8c-1-5.1-3.9-7.8-7.8-7.8Z"/>
    <path class="st2" d="M141.3,201.9c-4.9,0-8-3.8-8.3-10.9h23.8v-.6c0-11.1-6.6-17.4-15.5-17.4s-15.9,6.6-15.9,17.3,6.4,17.1,15.8,17.1,11.4-3.1,13.8-8.6h-7.8c-1.4,2-3.5,3-6,3ZM141.3,178.6c4,0,6.8,2.7,7.8,7.8h-15.8c1-5.1,3.9-7.8,7.9-7.8Z"/>
  </g>
  <path class="st1" d="M309,71.9c0-4-3.3-7.3-7.3-7.3s-6.1,2.2-7,5.1h0s0,0,0,0c-.2.5-.3,1-.3,1.6-1.6,7.3-5.5,11.1-9.6,18.4-3,5.6-4.8,9.6-6.1,12.2-7.5-14.2-13.6-16.9-22.4-25.2h0c0-3.2-2.6-5.7-5.7-5.7s-5.7,2.6-5.7,5.7.4,2.3,1,3.2c.7,11.4-14.8,30.5-23.5,31.5,0,0,0,0,0,0-5.4.8-9.5,5.5-9.5,11.1s5.1,11.3,11.3,11.3,11.3-5.1,11.3-11.3-.1-2-.4-2.9c0,0,0,0,0,0,.3-9.2,12.5-32.8,18-37.8.2,0,.4-.2.5-.3,7.5.2,16.4,12.4,18.6,18.4,5.7,14.6-.4,11.2-1.9,17.7,0,0,0,0,0,0-.2.8-.4,1.6-.4,2.5,0,5,4.1,9.1,9.1,9.1s9.1-4.1,9.1-9.1-.8-4.2-2.1-5.8h0c-6-10,0-19,2.1-23.9,4.3-8.3,10.5-10,15.2-11.6.6-.1,1.1-.3,1.6-.6,0,0,0,0,0,0h0c2.4-1.2,4-3.7,4-6.5Z"/>
  <path class="st1" d="M338.7,105.4c-1.4-1.8-3.7-2.6-5.8-2.3-4.4-2.5-8-4.1-11-5.2.2-.7.3-1.4.2-2.2-.4-2.4-2.6-3.9-5-3.5-2,.3-3.4,1.9-3.6,3.8-3.4-.4-6.6-.3-10.8-.6-1.4-1.7-3.9-2-5.6-.7-1.7,1.4-2,3.9-.7,5.6,1.4,1.7,3.9,2,5.6.7.6-.5,1-1.1,1.3-1.7,2.4-1.8,6.7-1.6,10.7-.7.2.4.4.7.7,1,1.9,8.4-7.2,24.5-13.5,26.3,0,0,0,0,0,0-3.9,1.3-6.4,5.3-5.7,9.5.8,4.6,5.2,7.8,9.8,7s7.8-5.2,7-9.8c-.1-.7-.4-1.4-.6-2.1,0,0,0,0,0,0-.9-6.7,4.8-24.7,8.3-29.9.5.2,1,.5,1.4.7,9.4,5.5,4.6,6.3,6.5,10.5,0,0,0,0,0,0,.2.5.5,1,.9,1.5,2.1,2.7,6.1,3.2,8.8,1,2.7-2.1,3.2-6.1,1-8.8Z"/>
  <circle class="st1" cx="254.5" cy="46.5" r="7.1"/>
  <circle class="st1" cx="259.5" cy="133.8" r="6.5"/>
  <circle class="st1" cx="282.6" cy="51.2" r="12.4"/>
  <path class="st1" d="M233.3,81.3c-.3-2.4-1.2-4.6-2.4-6.5h0c-.7-1.3-.7-1.7-.7-2.5h0c.1-.6.2-1.3.1-2-.4-3.1-3.3-5.3-6.4-4.9-.6,0-1.1.3-1.6.5-1.5,1-2.2,1.1-4.5,1.3h0c-.9,0-1.8,0-2.7.1-8.9,1.1-15.1,9.3-14,18.1,1.1,8.9,9.3,15.1,18.1,14s15.1-9.3,14-18.1ZM217.2,93.4c-5.6,0-10.2-4.6-10.2-10.2s4.6-10.2,10.2-10.2,10.2,4.6,10.2,10.2-4.6,10.2-10.2,10.2Z"/>
</svg>